<svg width="740" height="80" viewBox="-20 -10 740 80" fill="none" xmlns="http://www.w3.org/2000/svg">
  <polyline points="-20,40 0,40 10,30 20,40 35,40 40,50 55,5 70,60 80,40 110,40 125,25 140,40 190,40 200,30 210,40 225,40 230,50 245,5 260,60 270,40 300,40 315,25 330,40 350,40 350,40 370,40 380,30 390,40 405,40 410,50 425,5 440,60 450,40 480,40 495,25 510,40 560,40 570,30 580,40 595,40 600,50 615,5 630,60 640,40 670,40 685,25 700,40 720,40"
    fill="none" stroke="#e63946" stroke-width="3"/>
</svg>